<?xml version="1.0" standalone="no"?>
<!DOCTYPE svg PUBLIC "-//W3C//DTD SVG 20010904//EN"
 "http://www.w3.org/TR/2001/REC-SVG-20010904/DTD/svg10.dtd">
<svg version="1.0"
  xmlns="http://www.w3.org/2000/svg" width="650.000000pt" height="650.000000pt" viewBox="0 0 650.000000 650.000000" preserveAspectRatio="xMidYMid meet">
  <g transform="translate(0.000000,650.000000) scale(0.100000,-0.100000)" fill="#000000" stroke="none">
    <path d="M3480 3430 l0 -2150 245 0 245 0 0 193 1 192 32 -40 c146 -179 247
-261 413 -333 133 -58 262 -82 433 -82 595 0 1115 443 1265 1080 50 210 61
317 61 585 -1 261 -9 341 -57 530 -91 363 -288 676 -527 838 -129 87 -292 156
-456 193 -99 22 -329 30 -434 14 -236 -34 -427 -132 -598 -307 l-93 -95 0 766
0 766 -265 0 -265 0 0 -2150z m1520 569 c259 -68 457 -270 557 -567 105 -315
110 -805 12 -1137 -31 -102 -101 -246 -152 -312 -170 -221 -384 -334 -627
-334 -255 0 -466 114 -624 335 -87 122 -132 242 -167 441 -31 179 -34 602 -5
765 23 129 74 289 121 379 92 175 264 336 432 404 141 57 299 66 453 26z"/>
    <path d="M1265 4445 c-181 -28 -371 -92 -496 -166 -142 -85 -294 -262 -349
-406 -82 -217 -75 -447 19 -648 42 -89 99 -172 152 -221 171 -155 367 -233
1034 -409 400 -106 520 -151 593 -226 106 -109 124 -260 48 -414 -44 -89 -135
-179 -228 -224 -177 -87 -495 -109 -719 -51 -140 36 -222 81 -315 174 -96 96
-151 199 -186 343 -12 48 -22 89 -23 91 -1 1 -118 -16 -259 -38 -142 -22 -258
-40 -260 -40 -7 0 34 -164 59 -241 90 -272 277 -496 514 -613 198 -98 440
-146 741 -146 214 0 379 25 560 87 300 101 492 260 614 506 71 143 89 224 89
397 -1 228 -44 358 -170 506 -81 94 -130 131 -268 199 -153 75 -339 134 -1025
324 -323 89 -421 145 -486 277 -36 74 -36 171 0 249 59 130 216 228 409 256
96 13 335 13 420 0 84 -14 186 -52 249 -92 106 -68 204 -214 229 -340 8 -42
16 -59 28 -59 23 0 495 62 500 66 7 6 -20 128 -46 209 -49 153 -111 260 -199
349 -154 154 -405 260 -711 301 -139 18 -403 18 -518 0z"/>
  </g>
</svg>
